<?xml version="1.0" encoding="UTF-8"?>
<svg id="Layer_1" xmlns="http://www.w3.org/2000/svg" xmlns:xlink="http://www.w3.org/1999/xlink" version="1.1" viewBox="0 0 543.13 305.11">
  <!-- Generator: Adobe Illustrator 30.6.0, SVG Export Plug-In . SVG Version: 2.1.4 Build 109)  -->
  <defs>
    <style>
      .st0 {
        fill: url(#linear-gradient1);
      }

      .st1 {
        fill: url(#linear-gradient);
      }
    </style>
    <linearGradient id="linear-gradient" x1="0" y1="253.37" x2="543.13" y2="253.37" gradientUnits="userSpaceOnUse">
      <stop offset="0" stop-color="#5234ae"/>
      <stop offset="1" stop-color="#c199ed"/>
    </linearGradient>
    <linearGradient id="linear-gradient1" x1="150.7" y1="91.45" x2="389.35" y2="91.45" gradientUnits="userSpaceOnUse">
      <stop offset="0" stop-color="#5934a5"/>
      <stop offset="1" stop-color="#c499eb"/>
    </linearGradient>
  </defs>
  <path class="st1" d="M55.56,246.88l44.2,56.98h-29.11l-31.95-39.76-13.85,14.35v25.42H0v-100.65h24.85v45.62l43.85-45.62h28.58l-41.72,43.67ZM207.74,253.1c0,.1,0,.2,0,.3,0,.07,0,.14,0,.21,0,4.03-1.22,6.6-1.23,6.62,0,0,0,0,0,0h0s-82.26,44.88-85.51,44.88-3.02-3.25-3.02-3.25v-96.99s-.23-3.25,3.02-3.25,85.51,44.88,85.51,44.88h0s0,0,0,0c0,0,0,0,0,.01.03.07,1.21,2.61,1.23,6.58ZM182.93,253.37l-46.06-24.88h-2.02v49.78s-.05.05,0,.09v-.09c.17-.09,1.12.09,1.12.09l46.96-25ZM298.91,262.53l-50.17-59.32h-21.94v100.65h25.08v-60.13l50.92,60.13h21.12v-100.65h-25.01v59.32ZM338.14,222.76h31.85v81.1h24.68v-81.1h32.24v-19.55h-88.77v19.55ZM543.13,253.53c0,27.79-24.78,50.32-55.35,50.32s-55.35-22.53-55.35-50.32,24.78-50.32,55.35-50.32,55.35,22.53,55.35,50.32ZM519.25,253.53c0-17.38-14.09-31.46-31.46-31.46s-31.46,14.09-31.46,31.46,14.09,31.46,31.46,31.46,31.46-14.09,31.46-31.46Z"/>
  <path class="st0" d="M270.02,0c-33.16,0-60.05,26.89-60.05,60.06,0,16.58,6.72,31.58,17.57,42.45l7.66,76.34c.23,2.32,2.19,4.05,4.47,4.05.15,0,.3,0,.46-.02,2.47-.25,4.28-2.45,4.03-4.93l-6.77-67.49c9.4,6.1,20.6,9.66,32.63,9.66s22.97-3.47,32.3-9.44l-6.75,67.27c-.25,2.47,1.56,4.68,4.03,4.93.15.02.3.02.46.02,2.28,0,4.24-1.73,4.47-4.05l7.62-76.01c11.06-10.89,17.93-26.04,17.93-42.79,0-33.17-26.89-60.06-60.06-60.06ZM270.02,111.21c-26.8,0-48.81-20.63-50.97-46.89,46.77,18.95,101.95-.07,101.95-.07-2.13,26.29-24.14,46.96-50.98,46.96ZM219.04,55.85c2.15-26.28,24.16-46.94,50.98-46.94s48.8,20.62,50.97,46.87c-.92.32-55.57,18.86-101.95.07ZM274.47,137.42v35.39c0,2.49-2.01,4.5-4.5,4.5s-4.5-2.01-4.5-4.5v-35.39c0-2.49,2.01-4.5,4.5-4.5s4.5,2.01,4.5,4.5ZM260.18,147.1v13.14c0,2.49-2.01,4.5-4.5,4.5s-4.5-2.01-4.5-4.5v-13.14c0-2.49,2.01-4.5,4.5-4.5s4.5,2.01,4.5,4.5ZM288.75,147.1v13.14c0,2.49-2.01,4.5-4.5,4.5s-4.5-2.01-4.5-4.5v-13.14c0-2.49,2.01-4.5,4.5-4.5s4.5,2.01,4.5,4.5ZM197.71,73.16c1.38,1.72,1.09,4.21-.63,5.6-.73.59-1.61.87-2.49.87-1.18,0-2.36-.52-3.16-1.51-.49-.61-4.78-6.27-4.78-17.84s4.35-17.09,4.84-17.67c1.43-1.68,3.96-1.89,5.64-.46,1.67,1.42,1.89,3.9.5,5.59-.13.18-2.99,4.07-2.99,12.55s3.02,12.84,3.05,12.88ZM184.3,37.07c-.33.35-6.62,7.25-6.62,23s6.43,23.23,6.7,23.53c1.65,1.83,1.54,4.67-.27,6.34-.87.8-1.97,1.2-3.06,1.2-1.19,0-2.37-.47-3.25-1.41-.37-.4-9.12-9.92-9.12-29.67s8.83-28.94,9.2-29.31c1.75-1.76,4.6-1.77,6.36-.02,1.75,1.74,1.77,4.57.05,6.33ZM170.94,94.97c1.87,2.01,1.78,5.17-.22,7.05-.97.91-2.21,1.37-3.44,1.37-1.31,0-2.61-.51-3.59-1.53-.53-.55-12.99-13.89-12.99-41.84s12.55-40.77,13.09-41.3c1.96-1.94,5.13-1.92,7.07.04,1.93,1.95,1.92,5.1-.01,7.04-.22.23-10.15,10.82-10.15,34.22s10.14,34.84,10.24,34.95ZM348.61,40.32c.49.61,4.78,6.27,4.78,17.84s-4.35,17.09-4.85,17.67c-.79.93-1.92,1.41-3.05,1.41-.92,0-1.83-.31-2.59-.95-1.67-1.42-1.89-3.9-.5-5.59.13-.18,2.99-4.07,2.99-12.54s-3.02-12.84-3.05-12.88c-1.38-1.72-1.09-4.21.63-5.6,1.72-1.39,4.26-1.09,5.64.63ZM371.37,58.36c0,19.82-8.83,28.93-9.2,29.31-.88.89-2.04,1.33-3.19,1.33s-2.29-.44-3.17-1.31c-1.75-1.74-1.77-4.57-.05-6.33.34-.36,6.62-7.26,6.62-23s-6.43-23.23-6.7-23.53c-1.65-1.83-1.54-4.67.27-6.34,1.81-1.67,4.62-1.59,6.31.21.37.4,9.12,9.92,9.12,29.67ZM389.35,58.42c0,28.03-12.55,40.77-13.09,41.3-.97.96-2.25,1.45-3.52,1.45s-2.58-.5-3.55-1.48c-1.93-1.95-1.92-5.1.01-7.04.22-.23,10.15-10.82,10.15-34.22s-10.14-34.84-10.24-34.95c-1.87-2.01-1.78-5.17.22-7.05,2-1.88,5.13-1.82,7.03.16.53.55,12.99,13.89,12.99,41.84Z"/>
</svg>